<?xml version="1.0" encoding="UTF-8"?><svg id="Calque_1" xmlns="http://www.w3.org/2000/svg" viewBox="0 0 331.17 78.21"><path d="m193.64,10.76c1.64,0,5.42-.04,5.42-.04h2.93V.52h-11.15c-.19,0-.39-.02-.58-.02-8.18,0-14.83,4.83-14.83,14.49v62.71h13.2v-36.22h13.37v-10.26h-13.37v-15.27c0-3.54,2.05-5.17,5.01-5.17Z" fill="#fff" stroke="#1062fe" stroke-miterlimit="10"/><path d="m163.75,10.76c1.64,0,5.42-.04,5.42-.04h2.93V.52h-11.15c-.19,0-.39-.02-.58-.02-8.18,0-14.83,4.83-14.83,14.49v62.71h13.2v-36.22h13.37v-10.26h-13.37v-15.27c0-3.54,2.05-5.17,5.01-5.17Z" fill="#fff" stroke="#1062fe" stroke-miterlimit="10"/><path d="m317.4,43.82s0,.02.01.03h-29.13c2.37-5.71,8-9.74,14.57-9.74,2.52,0,4.89.59,7,1.64l6.04-10.46c-3.89-2.07-8.32-3.25-13.04-3.25-15.37,0-27.83,12.46-27.83,27.83s12.46,27.83,27.83,27.83c8.49,0,16.08-3.81,21.19-9.81l-7.98-9.43c-2.81,4.32-7.67,7.18-13.21,7.18-6.57,0-12.2-4.02-14.57-9.74h41.72c.43-1.94.67-3.96.67-6.03,0-6.79-2.44-13-6.48-17.84l-6.8,11.78Z" fill="#fff" stroke="#1062fe" stroke-miterlimit="10"/><path d="m219.14,22.97v54.74h-13.3V22.97h13.3Z" fill="#fff" stroke="#1062fe" stroke-miterlimit="10"/><path d="m265.01,58.86c-2.85,4.1-7.58,6.79-12.95,6.79-8.71,0-15.77-7.06-15.77-15.77s7.06-15.77,15.77-15.77c5.37,0,10.1,2.69,12.95,6.79l7.93-9.38c-5.1-5.8-12.55-9.47-20.88-9.47-15.37,0-27.83,12.46-27.83,27.83s12.46,27.83,27.83,27.83c8.33,0,15.78-3.68,20.88-9.47l-7.93-9.38Z" fill="#fff" stroke="#1062fe" stroke-miterlimit="10"/><path d="m220.26,7.92c0,4.3-2.97,7.37-7.16,7.37s-7.16-3.07-7.16-7.37,2.97-7.37,7.16-7.37,7.16,3.07,7.16,7.37Z" fill="none" stroke="#1062fe" stroke-miterlimit="10"/><path d="m42.21,23.16c-3.61-1.67-8.13-2.55-13.63-2.55-8.9,0-13.96,3.68-14.78,6.74v-6.23H.5v54.74h13.3v-26.91c0-9,5.32-15.65,14.32-15.76,2.85,0,5.27.67,7.2,1.9l6.89-11.94Z" fill="#1062fe" stroke="#fff" stroke-miterlimit="10"/><path d="m40.3,47.62v28.24h13.4v-31.37c0-5.64-1.09-10.42-3.39-14.21l-10.01,17.34Z" fill="#1062fe" stroke="#fff" stroke-miterlimit="10"/><path d="m89.39,42.17s0,.02.01.03h-29.13c2.37-5.71,8-9.74,14.57-9.74,2.52,0,4.89.59,7,1.64l6.04-10.46c-3.89-2.07-8.32-3.25-13.04-3.25-15.37,0-27.83,12.46-27.83,27.83s12.46,27.83,27.83,27.83c8.49,0,16.08-3.81,21.19-9.81l-7.98-9.43c-2.81,4.32-7.67,7.18-13.21,7.18-6.57,0-12.2-4.02-14.57-9.74h41.72c.43-1.94.67-3.96.67-6.03,0-6.79-2.44-13-6.48-17.84l-6.8,11.78Z" fill="#1062fe" stroke="#fff" stroke-miterlimit="10"/><path d="m124.28,20.4c-15.37,0-27.83,12.46-27.83,27.83,0,4.29,1,8.34,2.74,11.97l11.11-19.24c2.63-5.05,7.9-8.5,13.98-8.5,8.71,0,15.77,7.06,15.77,15.77s-7.06,15.77-15.77,15.77c-4.76,0-9.03-2.12-11.92-5.46l-6.22,10.77c4.87,4.2,11.2,6.75,18.14,6.75,15.37,0,27.83-12.46,27.83-27.83s-12.46-27.83-27.83-27.83Z" fill="#1062fe" stroke="#fff" stroke-miterlimit="10"/></svg>